<?xml version="1.0" encoding="UTF-8"?>
<svg version="1.1" xmlns="http://www.w3.org/2000/svg" width="155" height="157">
<path d="M0 0 C3.49740001 2.84612464 6.78467297 5.83991914 10 9 C10.62648437 9.61359375 11.25296875 10.2271875 11.8984375 10.859375 C27.01985269 26.8702852 31.5505528 47.49994088 31.26953125 68.83203125 C30.61163941 90.10818862 20.41693306 108.15164625 5.3125 122.6875 C-11.28382464 137.08990925 -31.97642725 143.03210279 -53.68359375 141.7890625 C-76.15500959 139.08535072 -95.52413827 128.0676946 -109.64453125 110.35546875 C-122.68339204 92.43706711 -126.34178246 71.41321399 -123.71875 49.66845703 C-121.04761217 33.09146669 -112.24121476 17.36684228 -100 6 C-99.4121875 5.40703125 -98.824375 4.8140625 -98.21875 4.203125 C-71.75611117 -21.27210193 -28.82891447 -21.09329666 0 0 Z M-101 13 C-114.17888615 28.44699155 -120.91814823 46.87908976 -120.3203125 67.0859375 C-118.50444565 89.27494467 -108.92704104 107.60977015 -92 122 C-74.99676014 134.40261262 -55.6090852 139.44019733 -34.79931641 136.71142578 C-20.43973172 134.21483521 -7.81375961 127.76350238 3 118 C3.63421875 117.43539062 4.2684375 116.87078125 4.921875 116.2890625 C18.63503816 103.36470961 26.67203507 84.4387361 27.47314453 65.6862793 C27.75244238 43.5988978 19.07033671 24.63540766 3.921875 8.83203125 C-9.83775713 -4.34154248 -29.07169596 -11.47711941 -48.04296875 -11.21484375 C-68.51163854 -9.72768809 -86.67034878 -1.87895452 -101 13 Z " fill="#FFFFFF" transform="translate(124,15)"/>
<path d="M0 0 C35.97 0 71.94 0 109 0 C107.46883142 4.59350575 106.15084606 7.84407008 103.6875 11.875 C103.11386719 12.84179688 102.54023437 13.80859375 101.94921875 14.8046875 C100 17 100 17 97.26953125 17.3203125 C96.52058594 17.21460937 95.77164063 17.10890625 95 17 C96.46471966 11.99554115 98.29041281 8.74177759 101 4 C54.965 4.495 54.965 4.495 8 5 C9.98 8.3 11.96 11.6 14 15 C14 15.66 14 16.32 14 17 C11.80078125 17.4609375 11.80078125 17.4609375 9 17 C6.97853399 14.78919341 5.62246842 12.24184756 4.1875 9.625 C3.57745117 8.57699219 3.57745117 8.57699219 2.95507812 7.5078125 C0 2.34263393 0 2.34263393 0 0 Z " fill="#FFFFFF" transform="translate(23,46)"/>
<path d="M0 0 C27.82214839 -2.0271921 27.82214839 -2.0271921 35.25 3.8125 C42.35100819 12.96491055 39.82436398 27.11954848 39 38 C35.7 38 32.4 38 29 38 C28.98598145 36.94087402 28.98598145 36.94087402 28.97167969 35.86035156 C28.91794341 32.65619455 28.83430243 29.45349243 28.75 26.25 C28.73582031 25.13882813 28.72164062 24.02765625 28.70703125 22.8828125 C28.67480469 21.81289062 28.64257812 20.74296875 28.609375 19.640625 C28.58842773 18.65610352 28.56748047 17.67158203 28.54589844 16.65722656 C27.85162009 13.27774287 26.72625195 12.06651408 24 10 C21.1411145 9.73116648 18.53692805 9.63875777 15.6875 9.6875 C6.39591438 9.53727147 6.39591438 9.53727147 2.4375 5.5625 C0 2.52987013 0 2.52987013 0 0 Z " fill="#FFFFFF" transform="translate(29,70)"/>
<path d="M0 0 C17.28496462 -1.8825209 17.28496462 -1.8825209 24.625 3.8125 C32.09339332 12.40970391 29.87797826 25.03469316 29.17456055 35.69604492 C29.11695557 36.4563501 29.05935059 37.21665527 29 38 C25.7 38 22.4 38 19 38 C19 29.75 19 21.5 19 13 C15.11636976 10.92402425 15.11636976 10.92402425 11.1875 9.8125 C6.38460989 8.07336718 3.20422446 4.90514856 0 1 C0 0.67 0 0.34 0 0 Z " fill="#FFFFFF" transform="translate(60,70)"/>
<path d="M0 0 C2.765625 -0.36328125 2.765625 -0.36328125 6 0 C8.046875 2.51953125 8.046875 2.51953125 9.75 5.8125 C10.32234375 6.89144531 10.8946875 7.97039062 11.484375 9.08203125 C12.23460938 10.52642578 12.23460938 10.52642578 13 12 C13.99 13.485 13.99 13.485 15 15 C15.95921722 13.25048432 16.91733817 11.50036756 17.875 9.75 C18.40867187 8.77546875 18.94234375 7.8009375 19.4921875 6.796875 C20.70419466 4.54869592 21.87547567 2.2927195 23 0 C24.98 0 26.96 0 29 0 C28.41279381 3.88529692 27.25117945 6.69534474 25.27734375 10.08203125 C24.73916016 11.01337891 24.20097656 11.94472656 23.64648438 12.90429688 C23.08251953 13.86400391 22.51855469 14.82371094 21.9375 15.8125 C21.36966797 16.79154297 20.80183594 17.77058594 20.21679688 18.77929688 C18.81745173 21.18993348 17.41170071 23.5965851 16 26 C15.01 26 14.02 26 13 26 C10.82291677 22.23508909 8.66014965 18.4621482 6.5 14.6875 C5.87996094 13.61564453 5.25992188 12.54378906 4.62109375 11.43945312 C4.03457031 10.41142578 3.44804688 9.38339844 2.84375 8.32421875 C2.29912109 7.37635498 1.75449219 6.42849121 1.19335938 5.4519043 C0 3 0 3 0 0 Z " fill="#FFFFFF" transform="translate(63,115)"/>
<path d="M0 0 C11.55 0 23.1 0 35 0 C35 2.64 35 5.28 35 8 C32.27210953 10.72789047 24.53426723 9.43195577 20.875 9.5 C19.03808594 9.58121094 19.03808594 9.58121094 17.1640625 9.6640625 C8.27342239 9.79876917 8.27342239 9.79876917 4.57128906 7.4765625 C2.77641779 5.73323162 1.30307965 4.13419691 0 2 C0 1.34 0 0.68 0 0 Z " fill="#FFFFFF" transform="translate(87,70)"/>
<path d="M0 0 C3.3 0 6.6 0 10 0 C10 8.91 10 17.82 10 27 C6.7 27 3.4 27 0 27 C0 18.09 0 9.18 0 0 Z " fill="#FFFFFF" transform="translate(100,81)"/>
<path d="M0 0 C2.97 0 5.94 0 9 0 C9 8.91 9 17.82 9 27 C6.03 27 3.06 27 0 27 C0 18.09 0 9.18 0 0 Z " fill="#FFFFFF" transform="translate(38,81)"/>
</svg>
